<svg width="3rem" height="2.83rem" viewBox="0 0 300 283" fill="none" xmlns="http://www.w3.org/2000/svg">
    <path
        d="M100.074 0.286268H188.742L96.695 273.093C96.2244 274.487 95.5394 275.798 94.6648 276.98C93.792 278.164 92.7394 279.201 91.5445 280.059C90.3496 280.916 89.0311 281.583 87.6301 282.032C86.2292 282.482 84.7683 282.714 83.2999 282.714H14.2941C12.0541 282.714 9.84407 282.182 7.85129 281.156C5.85639 280.133 4.13435 278.649 2.82812 276.827C1.52104 275.005 0.665945 272.899 0.333393 270.682C1.39747e-05 268.465 0.202289 266.199 0.917744 264.076L86.6749 9.89911C87.1432 8.50606 87.8287 7.19538 88.7052 6.01203C89.578 4.82868 90.6343 3.79138 91.8255 2.93383C93.0204 2.07627 94.3389 1.4097 95.7399 0.960328C97.1408 0.510954 98.6017 0.278778 100.07 0.278778V0.282523L100.074 0.286268Z"
        fill="url(#paint0_linear_41_42)" />
    <path
        d="M263.527 282.714H183.909C183.022 282.714 182.134 282.631 181.257 282.463C180.385 282.298 179.527 282.051 178.699 281.725C177.871 281.399 177.077 280.995 176.324 280.523C175.572 280.048 174.866 279.504 174.215 278.898L83.8656 194.543C82.9099 193.651 82.2444 192.492 81.9552 191.218C81.6662 189.943 81.7679 188.61 82.2469 187.394C82.7259 186.178 83.5602 185.134 84.6409 184.398C85.7235 183.664 87.0008 183.271 88.3081 183.271H228.912L263.52 282.717L263.527 282.714Z"
        fill="#0078D4" />
    <path
        d="M189.06 0.286278L126.991 183.29L228.406 183.267L263.194 282.714H183.876C183.055 282.706 182.235 282.631 181.426 282.485C180.617 282.339 179.823 282.126 179.051 281.841C177.504 281.278 176.064 280.453 174.796 279.403L113.806 222.498L96.7325 272.835C96.2905 274.093 95.6837 275.288 94.927 276.385C93.4104 278.592 91.3361 280.359 88.9149 281.504C87.7095 282.074 86.4334 282.481 85.1204 282.714H14.3353C12.0728 282.721 9.84031 282.182 7.8288 281.141C5.81697 280.101 4.08523 278.592 2.77994 276.741C1.47465 274.891 0.634202 272.753 0.32963 270.51C0.0261599 268.265 0.266387 265.98 1.0301 263.848L86.6487 10.0901C87.0945 8.67084 87.765 7.33395 88.634 6.12813C89.4993 4.92231 90.5556 3.8588 91.7543 2.98252C92.9529 2.10624 94.2865 1.42469 95.6986 0.967828C97.1108 0.510965 98.5904 0.278788 100.078 0.286278H189.064H189.06Z"
        fill="url(#paint1_linear_41_42)" />
    <path
        d="M299.083 264.076C299.798 266.2 300 268.464 299.671 270.682C299.338 272.898 298.484 275.004 297.18 276.827C295.873 278.648 294.152 280.131 292.158 281.155C290.164 282.178 287.955 282.713 285.714 282.714H186.891C189.131 282.714 191.341 282.178 193.338 281.156C195.33 280.134 197.053 278.647 198.361 276.827C199.668 275.007 200.522 272.899 200.856 270.682C201.189 268.465 200.987 266.199 200.271 264.076L114.51 9.89164C113.566 7.09161 111.767 4.65813 109.367 2.93384C108.176 2.07629 106.857 1.41346 105.46 0.96409C104.063 0.514717 102.602 0.286285 101.138 0.286285H199.956C201.425 0.286285 202.882 0.514717 204.283 0.96409C205.68 1.41346 206.999 2.08003 208.194 2.93384C209.385 3.7914 210.437 4.8287 211.31 6.00831C212.183 7.18791 212.865 8.49858 213.337 9.89164L299.098 264.076H299.083Z"
        fill="url(#paint2_linear_41_42)" />
    <defs>
        <linearGradient id="paint0_linear_41_42" x1="132.434" y1="21.2196" x2="40.3332" y2="293.368"
            gradientUnits="userSpaceOnUse">
            <stop stop-color="#114A8B" />
            <stop offset="1" stop-color="#0669BC" />
        </linearGradient>
        <linearGradient id="paint1_linear_41_42" x1="161.165" y1="148.018" x2="139.852" y2="155.249"
            gradientUnits="userSpaceOnUse">
            <stop stop-opacity="0.3" />
            <stop offset="0.1" stop-opacity="0.2" />
            <stop offset="0.3" stop-opacity="0.1" />
            <stop offset="0.6" stop-opacity="0.1" />
            <stop offset="1" stop-opacity="0" />
        </linearGradient>
        <linearGradient id="paint2_linear_41_42" x1="149.403" y1="13.2807" x2="250.49" y2="282.661"
            gradientUnits="userSpaceOnUse">
            <stop stop-color="#3CCBF4" />
            <stop offset="1" stop-color="#2892DF" />
        </linearGradient>
    </defs>
</svg>