<svg width="3rem" height="3rem" viewBox="0 0 128 128" fill="none" xmlns="http://www.w3.org/2000/svg">
    <path
        d="M126.749 63.8769C126.749 29.1523 98.5992 1.0023 63.8746 1.0023C29.15 1.0023 1 29.1523 1 63.8769M126.749 63.8769C126.749 98.6015 98.5992 126.752 63.8746 126.752C29.15 126.752 1 98.6015 1 63.8769M126.749 63.8769H1M9.67713 95.7667H118.072M9.67713 31.9848H118.072M63.8746 126.749C83.2162 126.749 98.8963 98.5992 98.8963 63.8746C98.8963 29.15 83.2162 1 63.8746 1M63.8746 126.749C44.533 126.749 28.8529 98.5992 28.8529 63.8746C28.8529 29.15 44.533 1 63.8746 1M63.8746 126.749C63.6812 126.749 63.5246 98.5992 63.5246 63.8746C63.5246 29.15 63.6812 1 63.8746 1"
        stroke="#999999" stroke-width="4" />
</svg>