<svg width="3rem" height="2.26rem" viewBox="0 0 271 205" fill="none" xmlns="http://www.w3.org/2000/svg">
    <path
        d="M18.4778 204.205H61.5911V99.5004L0 53.307V185.728C0 195.937 8.26868 204.206 18.4778 204.206V204.205Z"
        fill="#4285F4" />
    <path
        d="M209.409 204.205H252.523C262.731 204.205 271 195.936 271 185.728V53.307L209.409 99.5004V204.205Z"
        fill="#34A853" />
    <path
        d="M209.409 19.432V99.5004L271 53.3071V28.6709C271 5.836 244.932 -7.20587 226.654 6.49815L209.409 19.432Z"
        fill="#FBBC04" />
    <path fill-rule="evenodd" clip-rule="evenodd"
        d="M61.5911 99.5004V19.432L135.5 74.8642L209.409 19.432V99.5004L135.5 154.932L61.5911 99.5004Z"
        fill="#EA4335" />
    <path
        d="M0 28.6709V53.307L61.5911 99.5004V19.432L44.3455 6.49814C26.0679 -7.20588 0 5.83599 0 28.6699V28.6709Z"
        fill="#C5221F" />
</svg>