<svg width="3rem" height="3rem" viewBox="0 0 250 250" fill="none" xmlns="http://www.w3.org/2000/svg">
    <path
        d="M233.368 249.975C242.511 249.975 250 242.614 250 233.6V66.5748C250 57.5613 242.511 50.2003 233.368 50.2003H71.035L136.184 249.975H233.368Z"
        fill="#DBDBDB" />
    <path
        d="M233.368 57.7115C235.798 57.7115 238.102 58.663 239.831 60.3655C241.534 62.043 242.486 64.2463 242.486 66.5748V233.6C242.486 235.929 241.559 238.132 239.831 239.81C238.102 241.512 235.798 242.464 233.368 242.464H141.644L81.3796 57.7115H233.368ZM233.368 50.2003H71.035L136.184 249.975H233.368C242.511 249.975 250 242.614 250 233.6V66.5748C250 57.5613 242.511 50.2003 233.368 50.2003Z"
        fill="#DCDCDC" />
    <path d="M120.805 202.779L136.184 249.975L178.94 202.779H120.805Z" fill="#4352B8" />
    <path
        d="M234.47 119.229V109.439H187.256V93.6154H171.927V109.439H141.794V119.229H201.758C198.552 130.521 191.464 141.187 184.551 149.474C172.302 134.977 172.252 130.27 172.252 130.27H159.528C159.528 130.27 160.054 137.331 177.237 157.461C171.651 163.17 167.418 166.55 167.418 166.55L171.326 178.768C171.326 178.768 177.237 173.686 184.626 165.849C192.04 173.886 201.608 183.55 213.982 195.068L222.022 187.031C208.772 175.013 199.053 165.473 191.915 157.812C201.483 146.495 211.201 132.248 213.255 119.204H234.445V119.229H234.47Z"
        fill="#607988" />
    <path
        d="M16.6316 0.0248566C7.48923 0.0248566 0 7.51109 0 16.6748V186.179C0 195.318 7.48923 202.804 16.6316 202.804H178.965L113.816 0.0248566H16.6316Z"
        fill="#4285F4" />
    <path
        d="M133.829 50.2003H233.368C242.511 50.2003 250 57.5613 250 66.5748V166.775L133.829 50.2003Z"
        fill="url(#paint0_linear_45_99)" />
    <path
        d="M93.0268 107.837C92.4006 115.423 85.9132 126.665 70.2084 126.665C56.6076 126.665 45.5866 115.423 45.5866 101.577C45.5866 87.7316 56.6076 76.4897 70.2084 76.4897C77.9481 76.4897 83.1079 79.8447 86.0635 82.5738L96.3831 72.659C89.5952 66.3996 80.7534 62.4937 70.2084 62.4937C48.6424 62.4937 31.1342 79.995 31.1342 101.552C31.1342 123.11 48.6424 140.611 70.2084 140.611C92.8013 140.611 107.73 124.762 107.73 102.404C107.73 99.1988 107.329 96.8452 106.803 94.4416H70.2334V107.812L93.0268 107.837Z"
        fill="#EEEEEE" />
    <path
        d="M233.368 50.2001H129.947L113.816 0.0248566H16.6316C7.48923 0.0248566 0 7.51109 0 16.6748V186.179C0 195.318 7.48923 202.804 16.6316 202.804H120.805L136.184 249.975H233.368C242.511 249.975 250 242.614 250 233.6V66.5747C250 57.5612 242.511 50.2001 233.368 50.2001Z"
        fill="url(#paint1_radial_45_99)" />
    <defs>
        <linearGradient id="paint0_linear_45_99" x1="133.829" y1="108.488" x2="250" y2="108.488"
            gradientUnits="userSpaceOnUse">
            <stop stop-color="white" stop-opacity="0.2" />
            <stop offset="1" stop-color="white" stop-opacity="0.02" />
        </linearGradient>
        <radialGradient id="paint1_radial_45_99" cx="0" cy="0" r="1" gradientUnits="userSpaceOnUse"
            gradientTransform="translate(16.333 4.87364) scale(350.233 350.093)">
            <stop stop-color="white" stop-opacity="0.1" />
            <stop offset="1" stop-color="white" stop-opacity="0" />
        </radialGradient>
    </defs>
</svg>