<svg width="3rem" height="2.67rem" viewBox="0 0 266 237" fill="none" xmlns="http://www.w3.org/2000/svg">
    <path d="M94.3581 0.0143661H171.642V18.8644H94.3581V0.0143661Z" fill="#5A5A5A" />
    <path fill-rule="evenodd" clip-rule="evenodd"
        d="M244.432 236.986H21.5676C15.8475 236.986 10.3617 234.716 6.31699 230.676C2.27229 226.636 0 221.156 0 215.443L0 74.7303L37.0585 37.7143H228.942L266 74.7303V215.443C266 221.156 263.728 226.636 259.683 230.676C255.638 234.716 250.152 236.986 244.432 236.986Z"
        fill="#E6E7E8" />
    <path fill-rule="evenodd" clip-rule="evenodd"
        d="M0 114.012V74.7303L37.0585 37.7143H228.942L266 74.7303V114.012H0Z" fill="#D0D1D2" />
    <path fill-rule="evenodd" clip-rule="evenodd"
        d="M30.554 236.986V84.3905C30.554 82.0099 31.5008 79.7267 33.1861 78.0434C34.8714 76.36 37.1572 75.4143 39.5405 75.4143H226.459C228.843 75.4143 231.129 76.36 232.814 78.0434C234.499 79.7267 235.446 82.0099 235.446 84.3905V236.986H30.554Z"
        fill="#458CF5" />
    <path d="M30.554 114.012H235.446V236.986H30.554V114.012Z" fill="white" />
    <path fill-rule="evenodd" clip-rule="evenodd"
        d="M174.338 236.986V200.183L156.365 182.231L144.682 149.917L152.77 129.271L198.601 175.05L206.689 140.94L235.446 169.664V236.986H174.338Z"
        fill="#D2D3D4" />
    <path
        d="M44.0338 128.374H112.331V204.671H44.0338V128.374ZM44.0338 221.726H132.101V236.986H44.0338V221.726Z"
        fill="#D2D3D4" />
    <path fill-rule="evenodd" clip-rule="evenodd"
        d="M191.412 208.352V236.986H153.669V208.758C145.974 205.26 139.436 199.645 134.822 192.569C130.207 185.494 127.706 177.251 127.611 168.807C127.517 160.363 129.833 152.067 134.289 144.891C138.745 137.714 145.156 131.954 152.77 128.286V170.562L171.642 182.231L191.412 170.562V128.284C198.952 131.917 205.313 137.601 209.765 144.682C214.216 151.764 216.578 159.956 216.578 168.318C216.578 176.68 214.216 184.872 209.765 191.953C205.313 199.035 198.952 204.719 191.412 208.352Z"
        fill="#505050" />
    <path fill-rule="evenodd" clip-rule="evenodd"
        d="M51.6723 85.2881C53.1831 85.2881 54.6599 85.7356 55.916 86.574C57.1722 87.4123 58.1512 88.6039 58.7294 89.9981C59.3075 91.3922 59.4588 92.9263 59.164 94.4064C58.8693 95.8864 58.1418 97.2459 57.0735 98.3129C56.0053 99.38 54.6442 100.107 53.1625 100.401C51.6808 100.695 50.1449 100.544 48.7492 99.9668C47.3534 99.3894 46.1604 98.4114 45.3211 97.1567C44.4818 95.902 44.0338 94.4269 44.0338 92.9179C44.0338 90.8943 44.8386 88.9537 46.2711 87.5228C47.7036 86.092 49.6464 85.2881 51.6723 85.2881ZM74.1385 85.2881C75.6493 85.2881 77.1261 85.7356 78.3822 86.574C79.6384 87.4123 80.6174 88.6039 81.1956 89.9981C81.7737 91.3922 81.925 92.9263 81.6303 94.4064C81.3355 95.8864 80.608 97.2459 79.5398 98.3129C78.4715 99.38 77.1104 100.107 75.6287 100.401C74.147 100.695 72.6111 100.544 71.2154 99.9668C69.8196 99.3894 68.6267 98.4114 67.7873 97.1567C66.948 95.902 66.5 94.4269 66.5 92.9179C66.5 90.8943 67.3048 88.9537 68.7373 87.5228C70.1698 86.092 72.1127 85.2881 74.1385 85.2881Z"
        fill="#E6E7E8" />
    <path fill-rule="evenodd" clip-rule="evenodd"
        d="M74.5878 19.762L94.3581 0.0143661V37.7143H74.5878V19.762ZM191.412 19.762L171.642 0.0143661V37.7143H191.412V19.762Z"
        fill="#7B7B7B" />
</svg>