<svg width="3rem" height="2.66rem" viewBox="0 0 243 216" fill="none" xmlns="http://www.w3.org/2000/svg">
<path d="M84.2145 21.2499C94.3035 2.17058 117.944 -5.11948 137.026 4.96859C156.107 15.0567 163.388 38.6952 153.308 57.7754C152.865 58.6119 152.394 59.433 151.895 60.2374L73.7408 195.567C63.1999 214.397 39.3863 221.119 20.5545 210.579C1.72267 200.039 -5.00003 176.227 5.54136 157.397C5.71408 157.09 5.88727 156.792 6.06046 156.494L84.2145 21.2499Z" fill="#FBBC04"/>
<path d="M169.182 91.2876C179.271 72.2084 202.911 64.9183 221.993 75.0064C241.074 85.0944 248.355 108.733 238.275 127.813C237.832 128.65 237.361 129.471 236.862 130.275L199.288 195.367C188.746 214.197 164.933 220.919 146.102 210.379C127.27 199.838 120.547 176.027 131.088 157.197C131.261 156.889 131.434 156.591 131.607 156.293L169.182 91.2876Z" fill="#4285F4"/>
<path d="M39.6332 215.355C61.2149 215.355 78.7103 197.861 78.7103 176.281C78.7103 154.701 61.2149 137.207 39.6332 137.207C18.0516 137.207 0.556213 154.701 0.556213 176.281C0.556213 197.861 18.0516 215.355 39.6332 215.355Z" fill="#34A853"/>
</svg>
