<svg width="3rem" height="3rem" viewBox="0 0 249 250" fill="none" xmlns="http://www.w3.org/2000/svg">
    <path
        d="M0 18.3366C0 8.49134 8.24229 0.5 18.4027 0.5H230.597C240.762 0.5 249 8.49134 249 18.3366V231.666C249 241.514 240.762 249.5 230.597 249.5H18.4027C8.24326 249.5 0 241.515 0 231.669V18.3337V18.3366Z"
        fill="#006699" />
    <path
        d="M75.6687 208.88V96.7794H38.4082V208.88H75.6726H75.6687ZM57.0463 81.4766C70.0371 81.4766 78.1247 72.8685 78.1247 62.111C77.8815 51.1083 70.0371 42.7405 57.2933 42.7405C44.5408 42.7405 36.212 51.1083 36.212 62.11C36.212 72.8676 44.2967 81.4756 56.8021 81.4756H57.0434L57.0463 81.4766ZM96.293 208.88H133.551V146.285C133.551 142.939 133.794 139.584 134.778 137.194C137.47 130.497 143.601 123.565 153.897 123.565C167.376 123.565 172.771 133.844 172.771 148.916V208.88H210.028V144.605C210.028 110.174 191.648 94.1512 167.134 94.1512C147.036 94.1512 138.21 105.384 133.305 113.035H133.553V96.7832H96.2949C96.7812 107.3 96.292 208.884 96.292 208.884L96.293 208.88Z"
        fill="white" />
</svg>