<svg width="3rem" height="1.67rem" viewBox="0 0 270 150" fill="none" xmlns="http://www.w3.org/2000/svg">
    <path
        d="M244.687 0.0151978C235.195 0.0151978 226.969 5.29582 222.645 13.0055L222.117 14.0616L202.289 53.1382L177.187 102.67L193.641 135.093L194.59 136.889C197.121 141.325 200.918 145.021 205.559 147.239C210.199 144.915 213.996 141.325 216.527 136.889L217.477 135.093L266.73 37.93L267.891 35.6066C269.262 32.4382 270 29.0586 270 25.3622C270 11.3157 258.715 0.0151978 244.687 0.0151978ZM92.707 47.1183L76.3594 14.8009L75.4102 13.0055C72.8789 8.5698 69.082 4.87337 64.4414 2.65551C59.8008 4.97898 56.0039 8.5698 53.4727 13.0055L52.6289 14.8009L3.375 111.964L2.21484 114.288C0.84375 117.456 0.105469 120.836 0.105469 124.532C0.105469 138.473 11.3906 149.879 25.418 149.879C34.9102 149.879 43.1367 144.599 47.4609 136.889L47.9883 135.833L67.8164 96.7561L92.8125 47.2239L92.707 47.1183Z"
        fill="#FF5000" />
    <path
        d="M244.688 0.0151978C235.195 0.0151978 226.863 5.29582 222.645 13.0055L222.117 14.0616L202.289 53.1382L177.188 102.67L193.641 135.093L194.59 136.889C197.121 141.325 200.918 145.021 205.559 147.239C210.199 144.915 213.996 141.325 216.527 136.889L217.477 135.093L266.73 37.93L267.891 35.6066C269.262 32.4382 270 29.0586 270 25.3622C270 11.3157 258.609 0.0151978 244.688 0.0151978Z"
        fill="url(#paint0_linear_43_89)" />
    <path
        d="M25.3125 149.879C34.8047 149.879 43.1367 144.599 47.3555 136.889L47.8828 135.833L67.7109 96.7562L92.8125 47.2239L76.3594 14.8009L75.4102 13.0055C72.8789 8.56981 69.082 4.87338 64.4414 2.65552C59.8008 4.97899 56.0039 8.56981 53.4727 13.0055L52.6289 14.8009L3.375 111.964L2.10938 114.393C0.738281 117.562 0 120.941 0 124.638C0 138.579 11.2852 149.879 25.3125 149.879Z"
        fill="url(#paint1_linear_43_89)" />
    <path
        d="M92.707 47.1183L76.3594 14.8009L75.4102 13.0055C72.8789 8.5698 69.082 4.87337 64.4414 2.65551C65.918 1.91622 67.6055 1.28255 69.1875 0.860097C71.1914 0.332035 73.4062 0.0151978 75.5156 0.0151978H110.109C119.602 0.12081 127.828 5.29582 132.152 13.0055L132.891 14.8009L177.293 102.776L193.641 135.093L194.59 136.889C197.121 141.325 200.918 145.021 205.559 147.239C204.082 147.978 202.395 148.612 200.812 149.034C198.809 149.562 196.594 149.879 194.379 149.879H159.996C150.504 149.774 142.277 144.599 137.953 136.889L137.004 135.093L92.707 47.1183Z"
        fill="#FF8C44" />
    <defs>
        <linearGradient id="paint0_linear_43_89" x1="1413.64" y1="13978.2" x2="11954.9" y2="4981.91"
            gradientUnits="userSpaceOnUse">
            <stop stop-color="#D4202C" />
            <stop offset="0.04166" stop-color="#D82D2B" stop-opacity="0.958" />
            <stop offset="0.176" stop-color="#E25226" stop-opacity="0.824" />
            <stop offset="0.3167" stop-color="#EB7123" stop-opacity="0.683" />
            <stop offset="0.4635" stop-color="#F28920" stop-opacity="0.536" />
            <stop offset="0.6188" stop-color="#F69A1E" stop-opacity="0.381" />
            <stop offset="0.7886" stop-color="#F9A41D" stop-opacity="0.211" />
            <stop offset="1" stop-color="#FAA71D" stop-opacity="0" />
        </linearGradient>
        <linearGradient id="paint1_linear_43_89" x1="8039.79" y1="744.663" x2="-2501.53" y2="9741.2"
            gradientUnits="userSpaceOnUse">
            <stop stop-color="#D4202C" />
            <stop offset="0.04166" stop-color="#D82D2B" stop-opacity="0.958" />
            <stop offset="0.176" stop-color="#E25226" stop-opacity="0.824" />
            <stop offset="0.3167" stop-color="#EB7123" stop-opacity="0.683" />
            <stop offset="0.4635" stop-color="#F28920" stop-opacity="0.536" />
            <stop offset="0.6188" stop-color="#F69A1E" stop-opacity="0.381" />
            <stop offset="0.7886" stop-color="#F9A41D" stop-opacity="0.211" />
            <stop offset="1" stop-color="#FAA71D" stop-opacity="0" />
        </linearGradient>
    </defs>
</svg>