<svg width="3rem" height="2.78rem" viewBox="0 0 276 256" fill="none" xmlns="http://www.w3.org/2000/svg">
    <path
        d="M276 134.4C276.015 132.248 274.9 130.245 273.06 129.12H273.028L272.912 129.056L177.275 72.6079C176.862 72.3298 176.434 72.0755 175.991 71.8464C172.299 69.9468 167.912 69.9468 164.22 71.8464C163.777 72.0756 163.349 72.3298 162.936 72.6079L67.299 129.056L67.1835 129.12C64.2606 130.932 63.3645 134.764 65.1821 137.679C65.7177 138.538 66.4554 139.253 67.3311 139.763L162.968 196.211C163.383 196.487 163.811 196.741 164.252 196.973C167.945 198.872 172.331 198.872 176.024 196.973C176.465 196.741 176.893 196.487 177.308 196.211L272.945 139.763C274.855 138.652 276.022 136.605 276 134.4Z"
        fill="#0A2767" />
    <path
        d="M78.4481 96.7103H141.209V154.073H78.4481V96.7103ZM263.163 38.4V12.1599C263.313 5.59933 258.105 0.157207 251.526 0H88.6602C82.0805 0.157207 76.8725 5.59933 77.0232 12.1599V38.4L173.302 63.9999L263.163 38.4Z"
        fill="#0364B8" />
    <path d="M77.0232 38.4H141.209V95.9999H77.0232V38.4Z" fill="#0078D4" />
    <path d="M205.395 38.4H141.209V95.9999L205.395 153.6H263.163V95.9999L205.395 38.4Z"
        fill="#28A8EA" />
    <path d="M141.209 95.9999H205.395V153.6H141.209V95.9999Z" fill="#0078D4" />
    <path d="M141.209 153.6H205.395V211.2H141.209V153.6Z" fill="#0364B8" />
    <path d="M78.4481 154.073H141.209V206.221H78.4481V154.073Z" fill="#14447D" />
    <path d="M205.395 153.6H263.163V211.2H205.395V153.6Z" fill="#0078D4" />
    <path
        d="M273.06 139.411L272.938 139.475L177.301 193.107C176.884 193.363 176.46 193.606 176.017 193.824C174.393 194.595 172.629 195.03 170.831 195.104L165.606 192.057C165.165 191.836 164.736 191.591 164.322 191.321L67.4016 136.166H67.3567L64.1859 134.4V242.969C64.2354 250.213 70.1628 256.046 77.4274 256H262.963C263.073 256 263.169 255.949 263.284 255.949C264.819 255.851 266.332 255.536 267.777 255.014C268.402 254.75 269.005 254.438 269.581 254.08C270.011 253.837 270.749 253.306 270.749 253.306C274.037 250.88 275.983 247.048 276 242.97V134.4C275.997 136.476 274.874 138.391 273.06 139.411Z"
        fill="url(#paint0_linear_42_83)" />
    <path opacity="0.5"
        d="M270.865 133.971V140.627L170.863 209.28L67.3311 136.211C67.3311 136.176 67.3023 136.147 67.2669 136.147L57.7674 130.451V125.651L61.6828 125.587L69.9627 130.323L70.1552 130.387L70.8612 130.835C70.8612 130.835 168.167 186.195 168.424 186.323L172.147 188.499C172.468 188.371 172.788 188.243 173.174 188.115C173.366 187.987 269.773 133.907 269.773 133.907L270.865 133.971Z"
        fill="#0A2767" />
    <path
        d="M273.06 139.411L272.938 139.481L177.301 193.113C176.884 193.369 176.46 193.612 176.017 193.83C172.303 195.639 167.96 195.639 164.245 193.83C163.806 193.613 163.377 193.374 162.962 193.113L67.3248 139.481L67.2093 139.411C65.3628 138.413 64.2052 136.494 64.1861 134.4V242.969C64.2321 250.212 70.1574 256.046 77.4207 256C77.4207 256 77.421 256 77.4213 256H262.765C270.028 256.046 275.954 250.212 276 242.97C276 242.97 276 242.97 276 242.969V134.4C275.997 136.476 274.874 138.391 273.06 139.411Z"
        fill="#1490DF" />
    <path opacity="0.1"
        d="M178.694 192.32L177.262 193.12C176.848 193.383 176.419 193.625 175.979 193.843C174.402 194.615 172.687 195.067 170.934 195.174L207.321 238.08L270.794 253.331C272.534 252.021 273.917 250.298 274.819 248.32L178.694 192.32Z"
        fill="black" />
    <path opacity="0.05"
        d="M185.177 188.685L177.262 193.12C176.848 193.383 176.419 193.625 175.979 193.843C174.402 194.615 172.687 195.067 170.934 195.174L187.981 242.041L270.814 253.312C274.077 250.869 275.998 247.038 276 242.969V241.568L185.177 188.685Z"
        fill="black" />
    <path
        d="M77.6009 256H262.745C265.594 256.014 268.373 255.117 270.672 253.44L165.6 192.07C165.158 191.849 164.73 191.604 164.316 191.334L67.3953 136.179H67.3504L64.1861 134.4V242.598C64.1789 249.993 70.1849 255.993 77.6009 256V256Z"
        fill="#28A8EA" />
    <path opacity="0.1"
        d="M154.046 62.9312V199.443C154.035 204.229 151.116 208.532 146.665 210.323C145.286 210.914 143.801 211.219 142.3 211.219H64.1859V57.5999H77.0232V51.2H142.3C148.785 51.2245 154.032 56.4655 154.046 62.9312Z"
        fill="black" />
    <path opacity="0.2"
        d="M147.628 69.3311V205.843C147.644 207.389 147.315 208.919 146.665 210.323C144.882 214.704 140.623 217.578 135.882 217.6H64.1859V57.5999H135.882C137.744 57.5813 139.58 58.0445 141.209 58.944C145.144 60.9205 147.626 64.9382 147.628 69.3311Z"
        fill="black" />
    <path opacity="0.2"
        d="M147.628 69.3311V193.043C147.596 199.506 142.363 204.744 135.882 204.8H64.1859V57.5999H135.882C137.744 57.5813 139.58 58.0445 141.209 58.944C145.144 60.9205 147.626 64.9382 147.628 69.3311Z"
        fill="black" />
    <path opacity="0.2"
        d="M141.209 69.3311V193.043C141.202 199.516 135.954 204.768 129.463 204.8H64.1859V57.5999H129.463C135.954 57.6034 141.213 62.8529 141.209 69.3248C141.209 69.3269 141.209 69.329 141.209 69.3311Z"
        fill="black" />
    <path
        d="M11.7653 57.5999H129.444C135.942 57.5999 141.209 62.8522 141.209 69.3311V186.669C141.209 193.148 135.942 198.4 129.444 198.4H11.7653C5.26742 198.4 0 193.147 0 186.669V69.3311C0 62.8522 5.26757 57.5999 11.7653 57.5999Z"
        fill="url(#paint1_linear_42_83)" />
    <path
        d="M36.7722 106.803C39.6719 100.643 44.3524 95.4877 50.2128 92C56.7028 88.2951 64.0922 86.4482 71.5675 86.6623C78.4958 86.5125 85.3324 88.2637 91.3304 91.7247C96.9698 95.078 101.512 99.9914 104.405 105.869C107.556 112.345 109.126 119.472 108.988 126.669C109.141 134.19 107.525 141.642 104.27 148.429C101.308 154.516 96.6221 159.604 90.7912 163.065C84.562 166.632 77.4716 168.43 70.2902 168.262C63.2139 168.432 56.2266 166.661 50.0909 163.142C44.4026 159.784 39.8037 154.865 36.8429 148.972C33.6733 142.59 32.0843 135.543 32.2087 128.422C32.0766 120.965 33.6367 113.575 36.7722 106.803ZM51.0985 141.555C52.6445 145.449 55.2663 148.827 58.6596 151.296C62.1158 153.704 66.2544 154.947 70.4697 154.841C74.9589 155.018 79.3839 153.733 83.0759 151.181C86.4262 148.72 88.9791 145.333 90.4187 141.44C92.0281 137.092 92.8223 132.486 92.7616 127.853C92.8113 123.174 92.0647 118.522 90.5535 114.093C89.2188 110.094 86.7482 106.568 83.4417 103.942C79.8423 101.269 75.4292 99.9125 70.9447 100.102C66.638 99.9911 62.4067 101.243 58.8585 103.68C55.4079 106.159 52.7363 109.567 51.1562 113.504C47.651 122.529 47.6327 132.53 51.1048 141.568L51.0985 141.555Z"
        fill="white" />
    <path d="M205.395 38.4H263.163V95.9999H205.395V38.4Z" fill="#50D9FF" />
    <defs>
        <linearGradient id="paint0_linear_42_83" x1="170.093" y1="134.4" x2="170.093" y2="256"
            gradientUnits="userSpaceOnUse">
            <stop stop-color="#35B8F1" />
            <stop offset="1" stop-color="#28A8EA" />
        </linearGradient>
        <linearGradient id="paint1_linear_42_83" x1="24.5309" y1="48.4334" x2="116.278" y2="207.797"
            gradientUnits="userSpaceOnUse">
            <stop stop-color="#1784D9" />
            <stop offset="0.5" stop-color="#107AD5" />
            <stop offset="1" stop-color="#0A63C9" />
        </linearGradient>
    </defs>
</svg>