<svg
    class="me-4 svg-perro"
    height="36"
    viewBox="0 0 246 163"
    fill="none"
    xmlns="http://www.w3.org/2000/svg"
>
    <path
        id="Vector"
        fill-rule="evenodd"
        clip-rule="evenodd"
        d="M122.525 152.618L127.795 156.949C144.538 156.765 148.913 156.92 156.148 157.121C170.326 148.619 169.64 136.944 156.939 125.67C145.842 115.818 134.198 104.325 131.958 88.7497C131.291 84.1175 131.517 80.3889 131.973 77.6682L133.241 85.8724L149.122 81.6669C146.843 84.3555 145.488 87.7198 145.488 91.3706C145.488 100.184 153.385 107.329 163.126 107.329C172.867 107.329 180.764 100.184 180.764 91.3706C180.764 84.4681 175.921 78.5901 169.142 76.3646L197.345 68.8955L193.627 49.6428L133.879 71.4056C137.38 63.1474 147.907 58.1894 151.59 46.6456C155.676 33.8413 152.34 20.668 155.956 13.7875C157.978 9.9399 159.905 7.72636 162.53 6.35227C150.183 1.98102 137.682 0.00274658 122.525 0.00274658C107.368 0.00274658 94.8677 1.98194 82.5201 6.35227C85.1447 7.72544 87.0726 9.9399 89.0939 13.7875C92.709 20.668 89.3741 33.8413 93.4597 46.6456C97.1435 58.1894 107.67 63.1474 111.171 71.4056L51.4234 49.6428L47.7048 68.8955L75.9079 76.3646C69.129 78.5901 64.2863 84.4681 64.2863 91.3706C64.2863 100.184 72.1829 107.329 81.9242 107.329C91.6654 107.329 99.5621 100.184 99.5621 91.3706C99.5621 87.7198 98.2072 84.3555 95.9277 81.6669L111.809 85.8724L113.077 77.6682C113.535 80.388 113.759 84.1175 113.092 88.7506C110.852 104.325 99.2087 115.818 88.1108 125.67C75.4108 136.945 74.7242 148.62 88.9017 157.122C96.1374 156.921 100.512 156.766 117.255 156.95L122.525 152.618V152.618ZM100.199 130.155C100.199 130.155 121.149 117.778 144.851 130.155C140.845 147.182 133.098 148.589 122.525 148.765C111.952 148.59 104.205 147.183 100.199 130.155ZM221.915 57.6923C223.338 67.2376 248.403 95.9835 238.204 120.646C234.596 129.373 207.129 167.633 203.708 151.484C201.727 142.137 195 128.881 191.16 123.987C188.356 129.433 185.134 135.455 181.589 142.512C177.655 150.341 169.151 157.725 161.542 162.949C170.109 160.244 175.759 156.898 183.145 148.069C185.846 144.841 191.832 133.59 191.832 133.59C191.832 133.59 197.381 143.122 199.071 151.084C205.092 179.47 238.478 133.518 242.582 123.593C248.958 108.174 241.767 91.0419 234.755 78.2376C230.925 71.2436 224.074 62.3427 221.916 57.6914L221.915 57.6923ZM23.1352 57.6923C21.7126 67.2376 -3.3532 95.9835 6.84577 120.646C10.4545 129.373 37.9215 167.633 41.3425 151.484C43.3235 142.137 50.0502 128.881 53.8905 123.987C56.6945 129.433 59.916 135.455 63.4615 142.512C67.3952 150.341 75.8996 157.725 83.5079 162.949C74.9412 160.244 69.291 156.898 61.9052 148.069C59.2047 144.841 53.2186 133.59 53.2186 133.59C53.2186 133.59 47.6691 143.122 45.9792 151.084C39.9583 179.47 6.57206 133.518 2.46811 123.593C-3.90796 108.174 3.28286 91.0419 10.2952 78.2376C14.1254 71.2436 20.9766 62.3427 23.1343 57.6914L23.1352 57.6923Z"
        fill="white"
    />
</svg>