<svg width="3rem" height="3rem" viewBox="0 0 194 195" fill="none" xmlns="http://www.w3.org/2000/svg">
    <path fill-rule="evenodd" clip-rule="evenodd"
        d="M71.1291 0C60.405 0.00795107 51.7259 8.73823 51.7338 19.496C51.7259 30.2538 60.413 38.9841 71.137 38.992H90.5402V19.504C90.5481 8.74618 81.8611 0.0159021 71.1291 0C71.137 0 71.137 0 71.1291 0ZM71.1291 52H19.4032C8.6791 52.008 -0.00793499 60.7382 -8.85644e-06 71.496C-0.0158611 82.2538 8.67118 90.9841 19.3952 91H71.1291C81.8531 90.992 90.5402 82.2618 90.5323 71.504C90.5402 60.7382 81.8531 52.008 71.1291 52Z"
        fill="#36C5F0" />
    <path fill-rule="evenodd" clip-rule="evenodd"
        d="M194 71.496C194.008 60.7382 185.321 52.008 174.597 52C163.873 52.008 155.186 60.7382 155.194 71.496V91H174.597C185.321 90.992 194.008 82.2618 194 71.496ZM142.266 71.496V19.496C142.274 8.74618 133.595 0.0159021 122.871 0C112.147 0.00795107 103.46 8.73823 103.468 19.496V71.496C103.452 82.2538 112.139 90.9841 122.863 91C133.587 90.992 142.274 82.2618 142.266 71.496Z"
        fill="#2EB67D" />
    <path fill-rule="evenodd" clip-rule="evenodd"
        d="M122.863 195C133.587 194.992 142.274 186.262 142.266 175.504C142.274 164.746 133.587 156.016 122.863 156.008H103.46V175.504C103.452 186.254 112.139 194.984 122.863 195ZM122.863 142.992H174.597C185.321 142.984 194.008 134.254 194 123.496C194.016 112.738 185.329 104.008 174.605 103.992H122.871C112.147 104 103.46 112.73 103.468 123.488C103.46 134.254 112.139 142.984 122.863 142.992Z"
        fill="#ECB22E" />
    <path fill-rule="evenodd" clip-rule="evenodd"
        d="M5.41959e-06 123.496C-0.00792071 134.254 8.67912 142.984 19.4032 142.992C30.1272 142.984 38.8143 134.254 38.8063 123.496V104H19.4032C8.67912 104.008 -0.00792071 112.738 5.41959e-06 123.496ZM51.7339 123.496V175.496C51.718 186.254 60.4051 194.984 71.1291 195C81.8532 194.992 90.5402 186.262 90.5323 175.504V123.512C90.5481 112.754 81.8611 104.024 71.137 104.008C60.405 104.008 51.7259 112.738 51.7339 123.496Z"
        fill="#E01E5A" />
</svg>