<svg width="3rem" height="3rem" viewBox="0 0 253 253" fill="none" xmlns="http://www.w3.org/2000/svg">
    <path
        d="M126.5 253C196.364 253 253 196.364 253 126.5C253 56.6361 196.364 0 126.5 0C56.6361 0 0 56.6361 0 126.5C0 196.364 56.6361 253 126.5 253Z"
        fill="#34AADF" />
    <path
        d="M52.6478 125.403C52.6478 125.403 115.898 99.4452 137.834 90.3048C146.243 86.649 174.76 74.9492 174.76 74.9492C174.76 74.9492 187.922 69.831 186.825 82.2614C186.459 87.3801 183.535 105.295 180.61 124.672C176.223 152.092 171.47 182.072 171.47 182.072C171.47 182.072 170.739 190.481 164.523 191.943C158.308 193.406 148.071 186.825 146.243 185.362C144.78 184.266 118.822 167.813 109.317 159.77C106.757 157.576 103.833 153.189 109.682 148.071C122.844 136.006 138.565 121.016 148.071 111.51C152.458 107.123 156.845 96.8858 138.565 109.316C112.607 127.231 87.0148 144.049 87.0148 144.049C87.0148 144.049 81.1649 147.705 70.1969 144.414C59.2283 141.124 46.4321 136.737 46.4321 136.737C46.4321 136.737 37.658 131.253 52.6478 125.403Z"
        fill="white" />
</svg>