<svg width="3rem" height="3rem" viewBox="0 0 272 274" fill="none" xmlns="http://www.w3.org/2000/svg">
    <path
        d="M71.5829 236.95L76.0245 239.172C94.1348 249.947 114.84 255.579 135.911 255.462C200.78 255.314 254.078 201.874 254.078 136.988C254.078 105.629 241.627 75.5144 219.486 53.3152C197.375 30.8866 167.165 18.2469 135.682 18.2469C71.1091 18.2469 17.9808 71.3975 17.9808 135.981C17.9808 136.492 17.9808 136.995 17.9882 137.506C18.1827 159.464 24.3224 180.959 35.7545 199.705L38.7154 204.148L26.8713 247.835L71.5829 236.95Z"
        fill="#00E676" />
    <path
        d="M232.663 39.987C207.457 14.2631 172.879 -0.168316 136.873 0.00148159H136.644C62.4927 0.00171355 1.47326 61.0384 1.47326 135.211C1.47326 135.559 1.48068 135.899 1.48068 136.247C1.75998 159.83 7.86311 182.977 19.2469 203.63L0 273.974L71.7311 255.462C91.5468 266.344 113.825 271.953 136.429 271.752C210.855 271.345 271.867 209.961 271.822 135.507C272 99.7349 257.898 65.333 232.663 39.987ZM136.873 248.798C116.836 248.902 97.1511 243.525 79.9477 233.248L75.5062 231.027L32.7933 242.134L43.8971 199.927L40.9363 195.484C29.9375 177.72 24.1104 157.239 24.1101 136.343C24.1101 74.7222 74.8031 24.0149 136.407 24.0149C198.011 24.0149 248.704 74.7222 248.704 136.343C248.704 175.144 228.606 211.293 195.65 231.767C178.22 242.936 157.943 248.848 137.244 248.798M202.312 166.606L194.17 162.904C194.17 162.904 182.325 157.721 174.923 154.018C174.183 154.018 173.442 153.278 172.702 153.278C170.877 153.323 169.093 153.833 167.52 154.759C165.943 155.684 166.78 155.499 156.416 167.347C155.713 168.731 154.27 169.598 152.715 169.568H151.975C150.862 169.382 149.831 168.866 149.014 168.087L145.313 166.606C137.371 163.243 130.099 158.478 123.845 152.538C122.364 151.057 120.144 149.575 118.663 148.095C113.183 142.843 108.451 136.864 104.598 130.324L103.858 128.843C103.215 127.938 102.716 126.938 102.378 125.881C102.184 124.598 102.446 123.288 103.118 122.179C103.791 121.068 106.079 118.476 108.3 116.255C110.52 114.033 110.52 112.553 112.001 111.071C112.762 110.014 113.288 108.807 113.543 107.529C113.798 106.252 113.777 104.935 113.481 103.667C110.031 94.0854 106.078 84.6932 101.637 75.5292C100.447 73.6776 98.5926 72.3526 96.4555 71.8268H88.3126C86.8321 71.8268 85.3517 72.5673 83.871 72.5673L83.1308 73.3077C81.6503 74.0481 80.1699 75.5292 78.6892 76.2696C77.2088 77.0101 76.4686 79.2316 74.9881 80.7125C69.8131 87.2539 66.9497 95.3255 66.8452 103.667C66.9272 109.534 68.1858 115.325 70.5463 120.698L71.2868 122.919C77.9336 137.134 87.2295 149.951 98.6764 160.683L101.637 163.644C103.792 165.43 105.775 167.413 107.559 169.568C122.897 182.919 141.115 192.545 160.784 197.706C163.005 198.446 165.966 198.446 168.186 199.187H175.589C179.458 198.996 183.243 197.986 186.693 196.225C188.506 195.403 190.239 194.411 191.875 193.263L193.355 191.782C194.836 190.301 196.316 189.561 197.797 188.08C199.244 186.79 200.491 185.293 201.498 183.637C202.919 180.32 203.919 176.84 204.459 173.271V168.087C203.794 167.489 203.046 166.991 202.238 166.606"
        fill="white" />
</svg>